<svg viewBox="0 0 1180 960" xmlns="http://www.w3.org/2000/svg" font-family="Arial, Helvetica, sans-serif" role="img" aria-labelledby="t d">
<title id="t">QuoteCopilot system architecture</title>
<desc id="d">A Streamlit UI calls a FastAPI backend that drives a LangGraph orchestrator of four subgraphs (intake, enrichment, assessment, packaging) over eight agents, using deterministic rules, rating and hybrid RAG tools, a switchable LLM factory, two SQLite stores, and a human review queue.</desc>
<defs>
<marker id="aB" markerWidth="9" markerHeight="9" refX="7" refY="4.5" orient="auto"><path d="M0 0L9 4.5L0 9z" fill="#1F4E79"/></marker>
<marker id="aT" markerWidth="9" markerHeight="9" refX="7" refY="4.5" orient="auto"><path d="M0 0L9 4.5L0 9z" fill="#1B7A6B"/></marker>
<marker id="aA" markerWidth="9" markerHeight="9" refX="7" refY="4.5" orient="auto"><path d="M0 0L9 4.5L0 9z" fill="#B5762E"/></marker>
</defs>

<text x="40" y="40" font-size="22" font-weight="700" fill="#1F4E79">QuoteCopilot — System Architecture</text>
<text x="40" y="60" font-size="12" fill="#667">Multi-agent HO3 underwriting review · LangGraph + hybrid RAG + deterministic rules + human-in-the-loop</text>

<!-- legend -->
<g font-size="11" fill="#1A2A3A">
<rect x="836" y="26" width="14" height="14" rx="3" fill="#EAF1F8" stroke="#2E5496"/><text x="856" y="37">Agentic / LLM-assisted</text>
<rect x="836" y="46" width="14" height="14" rx="3" fill="#E3F2EE" stroke="#1B7A6B"/><text x="856" y="57">Deterministic / data</text>
<rect x="1010" y="26" width="14" height="14" rx="3" fill="#FBEFD9" stroke="#B5762E"/><text x="1030" y="37">Human-in-the-loop</text>
<rect x="1010" y="46" width="14" height="14" rx="3" fill="#EEEEEE" stroke="#777"/><text x="1030" y="57">State / persistence</text>
</g>

<!-- actors -->
<g font-size="12" text-anchor="middle">
<rect x="360" y="74" width="140" height="40" rx="6" fill="#FFFFFF" stroke="#2E5496"/><text x="430" y="99" fill="#1A2A3A">Underwriter</text>
<rect x="520" y="74" width="140" height="40" rx="6" fill="#FFFFFF" stroke="#2E5496"/><text x="590" y="99" fill="#1A2A3A">Producer / agent</text>
<rect x="680" y="74" width="140" height="40" rx="6" fill="#FFFFFF" stroke="#2E5496"/><text x="750" y="99" fill="#1A2A3A">Review manager</text>
</g>

<!-- UI -->
<rect x="360" y="140" width="460" height="46" rx="8" fill="#EAF1F8" stroke="#2E5496"/>
<text x="590" y="162" font-size="14" font-weight="700" text-anchor="middle" fill="#1F4E79">Streamlit UI</text>
<text x="590" y="178" font-size="11" text-anchor="middle" fill="#46607A">pure rendering layer · httpx client</text>

<!-- API -->
<rect x="360" y="210" width="460" height="52" rx="8" fill="#1F4E79" stroke="#1F4E79"/>
<text x="590" y="232" font-size="14" font-weight="700" text-anchor="middle" fill="#FFFFFF">FastAPI backend</text>
<text x="590" y="250" font-size="11" text-anchor="middle" fill="#CADDF0">/quote · /runs · /answers · /reviews · /health</text>

<!-- spine arrows -->
<line x1="590" y1="114" x2="590" y2="139" stroke="#1F4E79" stroke-width="1.6" marker-end="url(#aB)"/>
<line x1="590" y1="186" x2="590" y2="209" stroke="#1F4E79" stroke-width="1.6" marker-end="url(#aB)"/>
<text x="600" y="203" font-size="10" fill="#667">HTTP</text>
<line x1="590" y1="262" x2="590" y2="289" stroke="#1F4E79" stroke-width="1.6" marker-end="url(#aB)"/>

<!-- orchestrator container -->
<rect x="210" y="292" width="760" height="404" rx="10" fill="#F6F9FC" stroke="#2E5496" stroke-width="1.4"/>
<rect x="210" y="292" width="760" height="30" rx="10" fill="#2E5496"/>
<text x="226" y="313" font-size="13" font-weight="700" fill="#FFFFFF">LangGraph Orchestrator — parent StateGraph over shared RunState (checkpointed)</text>

<!-- subgraph columns -->
<!-- col template: header + agents -->
<g text-anchor="middle">
<!-- Intake -->
<rect x="226" y="338" width="168" height="338" rx="8" fill="#EAF1F8" stroke="#2E5496"/>
<text x="310" y="358" font-size="12.5" font-weight="700" fill="#1F4E79">1 · Intake</text>
<rect x="244" y="372" width="132" height="42" rx="6" fill="#FFFFFF" stroke="#2E5496"/><text x="310" y="398" font-size="12" fill="#1A2A3A">Normalizer</text>
<rect x="244" y="430" width="132" height="42" rx="6" fill="#FFFFFF" stroke="#2E5496"/><text x="310" y="456" font-size="12" fill="#1A2A3A">Router</text>
<line x1="310" y1="414" x2="310" y2="429" stroke="#2E5496" stroke-width="1.4" marker-end="url(#aB)"/>
<text x="310" y="498" font-size="10" fill="#46607A">canonical HO3 +</text>
<text x="310" y="510" font-size="10" fill="#46607A">missing-info check</text>

<!-- Enrichment -->
<rect x="412" y="338" width="168" height="338" rx="8" fill="#EAF1F8" stroke="#2E5496"/>
<text x="496" y="358" font-size="12.5" font-weight="700" fill="#1F4E79">2 · Enrichment</text>
<rect x="430" y="372" width="132" height="42" rx="6" fill="#FFFFFF" stroke="#2E5496"/><text x="496" y="398" font-size="12" fill="#1A2A3A">Enrichment</text>
<rect x="430" y="430" width="132" height="42" rx="6" fill="#FFFFFF" stroke="#2E5496"/><text x="496" y="456" font-size="12" fill="#1A2A3A">Retrieval</text>
<line x1="496" y1="414" x2="496" y2="429" stroke="#2E5496" stroke-width="1.4" marker-end="url(#aB)"/>
<text x="496" y="498" font-size="10" fill="#46607A">hazard / territory</text>
<text x="496" y="510" font-size="10" fill="#46607A">+ guideline chunks</text>

<!-- Assessment -->
<rect x="598" y="338" width="168" height="338" rx="8" fill="#EAF1F8" stroke="#2E5496"/>
<text x="682" y="358" font-size="12.5" font-weight="700" fill="#1F4E79">3 · Assessment</text>
<rect x="616" y="372" width="132" height="40" rx="6" fill="#FFFFFF" stroke="#2E5496"/><text x="682" y="397" font-size="12" fill="#1A2A3A">Assessor</text>
<rect x="616" y="430" width="132" height="40" rx="6" fill="#FFFFFF" stroke="#2E5496"/><text x="682" y="455" font-size="12" fill="#1A2A3A">Verifier</text>
<rect x="616" y="488" width="132" height="40" rx="6" fill="#FFFFFF" stroke="#2E5496"/><text x="682" y="513" font-size="12" fill="#1A2A3A">Rating</text>
<line x1="682" y1="412" x2="682" y2="429" stroke="#2E5496" stroke-width="1.4" marker-end="url(#aB)"/>
<line x1="682" y1="470" x2="682" y2="487" stroke="#2E5496" stroke-width="1.4" marker-end="url(#aB)"/>

<!-- Packaging -->
<rect x="784" y="338" width="168" height="338" rx="8" fill="#EAF1F8" stroke="#2E5496"/>
<text x="868" y="358" font-size="12.5" font-weight="700" fill="#1F4E79">4 · Packaging</text>
<rect x="802" y="372" width="132" height="40" rx="6" fill="#FFFFFF" stroke="#2E5496"/><text x="868" y="397" font-size="12" fill="#1A2A3A">Packager</text>
<rect x="802" y="430" width="132" height="40" rx="6" fill="#FFFFFF" stroke="#2E5496"/><text x="868" y="455" font-size="12" fill="#1A2A3A">Critic (opt.)</text>
<rect x="802" y="488" width="132" height="40" rx="6" fill="#FFFFFF" stroke="#2E5496"/><text x="868" y="513" font-size="12" fill="#1A2A3A">Review routing</text>
<line x1="868" y1="412" x2="868" y2="429" stroke="#2E5496" stroke-width="1.4" marker-end="url(#aB)"/>
<line x1="868" y1="470" x2="868" y2="487" stroke="#2E5496" stroke-width="1.4" marker-end="url(#aB)"/>
</g>

<!-- between-subgraph arrows -->
<g>
<line x1="394" y1="450" x2="411" y2="450" stroke="#1F4E79" stroke-width="2" marker-end="url(#aB)"/>
<line x1="580" y1="450" x2="597" y2="450" stroke="#1F4E79" stroke-width="2" marker-end="url(#aB)"/>
<line x1="766" y1="450" x2="783" y2="450" stroke="#1F4E79" stroke-width="2" marker-end="url(#aB)"/>
</g>

<!-- pause loop note -->
<rect x="244" y="540" width="708" height="30" rx="6" fill="#FBEFD9" stroke="#B5762E"/>
<text x="598" y="560" font-size="11" text-anchor="middle" fill="#7A5016">Pause &#8594; <tspan font-style="italic">waiting_for_info</tspan>: missing facts or wildfire-mitigation evidence suspend the run; same run_id resumes after answers</text>

<!-- left panel: deterministic tools -->
<rect x="20" y="338" width="176" height="352" rx="10" fill="#E3F2EE" stroke="#1B7A6B" stroke-width="1.4"/>
<text x="108" y="358" font-size="12.5" font-weight="700" text-anchor="middle" fill="#0F5848">Deterministic Tools &amp; Data</text>
<g text-anchor="middle" font-size="11.5">
<rect x="36" y="372" width="144" height="40" rx="6" fill="#FFFFFF" stroke="#1B7A6B"/><text x="108" y="396" fill="#1A2A3A">Rules engine</text>
<rect x="36" y="420" width="144" height="40" rx="6" fill="#FFFFFF" stroke="#1B7A6B"/><text x="108" y="444" fill="#1A2A3A">Rating calculator</text>
<rect x="36" y="468" width="144" height="46" rx="6" fill="#FFFFFF" stroke="#1B7A6B"/><text x="108" y="488" fill="#1A2A3A">Hybrid RAG</text><text x="108" y="503" font-size="10" fill="#3C6B5E">BM25+vector+RRF+rerank</text>
<rect x="36" y="522" width="144" height="46" rx="6" fill="#FFFFFF" stroke="#1B7A6B"/><text x="108" y="542" fill="#1A2A3A">Guideline corpus</text><text x="108" y="557" font-size="10" fill="#3C6B5E">5 MD · Chroma · BM25</text>
</g>
<line x1="108" y1="514" x2="108" y2="521" stroke="#1B7A6B" stroke-width="1.3" marker-end="url(#aT)"/>
<!-- dashed connectors tools->agents -->
<path d="M180 392 H210" stroke="#1B7A6B" stroke-width="1.3" stroke-dasharray="4 3" fill="none" marker-end="url(#aT)"/>
<path d="M180 440 C200 440 205 392 226 392" stroke="#1B7A6B" stroke-width="1.3" stroke-dasharray="4 3" fill="none"/>
<text x="150" y="330" font-size="9.5" fill="#3C6B5E">used by Assessor · Rating · Retrieval</text>

<!-- right panel: LLM factory -->
<rect x="984" y="338" width="180" height="150" rx="10" fill="#EAF1F8" stroke="#2E5496" stroke-width="1.4"/>
<text x="1074" y="358" font-size="12.5" font-weight="700" text-anchor="middle" fill="#1F4E79">LLM Factory</text>
<text x="1074" y="375" font-size="10" text-anchor="middle" fill="#46607A">single model-selection point</text>
<rect x="1000" y="386" width="148" height="46" rx="6" fill="#FFFFFF" stroke="#2E5496"/>
<text x="1074" y="406" font-size="11.5" text-anchor="middle" fill="#1A2A3A">Anthropic · OpenAI</text>
<text x="1074" y="421" font-size="11.5" text-anchor="middle" fill="#1A2A3A">· Nebius Token Factory</text>
<text x="1074" y="452" font-size="10" text-anchor="middle" fill="#46607A">language only ·</text>
<text x="1074" y="466" font-size="10" text-anchor="middle" fill="#46607A">deterministic fallback</text>
<path d="M984 432 C972 432 968 450 952 450" stroke="#2E5496" stroke-width="1.3" stroke-dasharray="4 3" fill="none" marker-end="url(#aB)"/>

<!-- outcomes -->
<line x1="700" y1="696" x2="700" y2="724" stroke="#1F4E79" stroke-width="1.6" marker-end="url(#aB)"/>
<rect x="300" y="726" width="320" height="64" rx="8" fill="#FFFFFF" stroke="#2E5496" stroke-width="1.4"/>
<text x="460" y="748" font-size="13" font-weight="700" text-anchor="middle" fill="#1F4E79">Decision packet</text>
<text x="460" y="766" font-size="11" text-anchor="middle" fill="#46607A">ACCEPT · REFER · DECLINE</text>
<text x="460" y="781" font-size="10" text-anchor="middle" fill="#667">citations · reason codes · confidence · next steps · audit ref</text>
<rect x="660" y="726" width="280" height="64" rx="8" fill="#FBEFD9" stroke="#B5762E" stroke-width="1.4"/>
<text x="800" y="748" font-size="13" font-weight="700" text-anchor="middle" fill="#7A5016">Human review queue</text>
<text x="800" y="766" font-size="11" text-anchor="middle" fill="#7A5016">refer · decline · verify-fail · no-evidence</text>
<text x="800" y="781" font-size="10" text-anchor="middle" fill="#8A6028">approve · request info · override · close</text>
<path d="M620 758 H659" stroke="#B5762E" stroke-width="1.5" stroke-dasharray="5 3" fill="none" marker-end="url(#aA)"/>

<!-- state band -->
<rect x="20" y="838" width="1144" height="74" rx="10" fill="#EEEEEE" stroke="#777" stroke-width="1.2"/>
<text x="40" y="862" font-size="13" font-weight="700" fill="#333">State &amp; persistence</text>
<rect x="40" y="872" width="540" height="30" rx="6" fill="#FFFFFF" stroke="#888"/>
<text x="310" y="892" font-size="11.5" text-anchor="middle" fill="#1A2A3A">checkpoints.db — LangGraph SqliteSaver (pause / resume)</text>
<rect x="600" y="872" width="544" height="30" rx="6" fill="#FFFFFF" stroke="#888"/>
<text x="872" y="892" font-size="11.5" text-anchor="middle" fill="#1A2A3A">quotecopilot.db — runs · audit_events · decision_packets · review_tasks</text>
<path d="M210 660 C150 660 120 760 120 837" stroke="#777" stroke-width="1.2" stroke-dasharray="4 3" fill="none" marker-end="url(#aA)"/>
<text x="128" y="724" font-size="9.5" fill="#777">every node writes</text>
<text x="128" y="736" font-size="9.5" fill="#777">an audit event</text>
</svg>
